<?xml version="1.0" encoding="UTF-8"?><svg id="Ebene_2" xmlns="http://www.w3.org/2000/svg" viewBox="0 0 32.4 37.8"><defs><style>.cls-1{stroke:#008484;stroke-linecap:round;stroke-linejoin:round;stroke-width:.06px;}</style></defs><g id="Ebene_1-2"><path class="cls-1" d="M16.09,.03C11.58,.03,7.92,3.91,7.92,8.68c0,3.55,2.02,6.6,4.91,7.94,1.21,1.27,2.27,3.07,2.87,5.6-1.25-3.08-4.14-5.23-7.5-5.23C3.69,16.99,.03,20.87,.03,25.65s3.66,8.65,8.17,8.65c3.37,0,6.27-2.17,7.51-5.26-2.07,8.82-9.7,8.73-9.7,8.73H26.43s-7.4-.05-9.6-8.4c1.31,2.91,4.12,4.93,7.37,4.93,4.51,0,8.17-3.87,8.17-8.65s-3.66-8.66-8.17-8.66c-3.24,0-6.03,2-7.36,4.89,.7-2.63,1.92-4.43,3.26-5.67h0c2.47-1.49,4.14-4.3,4.14-7.53C24.25,3.91,20.6,.03,16.08,.03h0Z"/></g></svg>